<?xml version="1.0" encoding="UTF-8" standalone="no"?>
<!-- Created with Inkscape (http://www.inkscape.org/) -->

<svg
   xmlns:dc="http://purl.org/dc/elements/1.1/"
   xmlns:cc="http://creativecommons.org/ns#"
   xmlns:rdf="http://www.w3.org/1999/02/22-rdf-syntax-ns#"
   xmlns:svg="http://www.w3.org/2000/svg"
   xmlns="http://www.w3.org/2000/svg"
   xmlns:sodipodi="http://sodipodi.sourceforge.net/DTD/sodipodi-0.dtd"
   xmlns:inkscape="http://www.inkscape.org/namespaces/inkscape"
   width="200mm"
   height="200mm"
   viewBox="0 0 200 200"
   version="1.1"
   id="svg8"
   inkscape:version="0.92.3 (2405546, 2018-03-11)"
   sodipodi:docname="logo.svg">
  <defs
     id="defs2" />
  <sodipodi:namedview
     id="base"
     pagecolor="#ffffff"
     bordercolor="#666666"
     borderopacity="1.0"
     inkscape:pageopacity="0.0"
     inkscape:pageshadow="2"
     inkscape:zoom="0.35"
     inkscape:cx="400"
     inkscape:cy="560"
     inkscape:document-units="mm"
     inkscape:current-layer="layer1"
     showgrid="false"
     inkscape:window-width="1366"
     inkscape:window-height="719"
     inkscape:window-x="0"
     inkscape:window-y="0"
     inkscape:window-maximized="1" />
  <metadata
     id="metadata5">
    <rdf:RDF>
      <cc:Work
         rdf:about="">
        <dc:format>image/svg+xml</dc:format>
        <dc:type
           rdf:resource="http://purl.org/dc/dcmitype/StillImage" />
        <dc:title></dc:title>
      </cc:Work>
    </rdf:RDF>
  </metadata>
  <g
     inkscape:label="Layer 1"
     inkscape:groupmode="layer"
     id="layer1"
     transform="translate(0,-97)">
    <path
       style="fill:#ff6600;stroke-width:0.29255688"
       d="m 62.300242,178.30132 c -0.280699,2.35035 -0.429122,4.74214 -0.429122,7.17051 v 47.64506 c 0,32.87838 26.46896,59.34734 59.34733,59.34734 32.87838,0 59.34734,-26.46896 59.34734,-59.34734 v -47.64506 c 0,-2.42837 -0.14785,-4.82016 -0.42855,-7.17051 -2.03065,0.0416 -4.07177,0.0657 -6.12598,0.0657 H 68.426223 c -2.054218,0 -4.095337,-0.0241 -6.125981,-0.0657 z"
       id="rect10"
       inkscape:connector-curvature="0" />
    <circle
       style="fill:#000000;stroke-width:0.29255688"
       id="path19"
       cx="120.38277"
       cy="216.39951"
       r="21.7328" />
    <circle
       r="44.71941"
       cy="147.43964"
       cx="84.022095"
       id="circle21"
       style="fill:#ff6600;stroke-width:0.60199201" />
    <path
       inkscape:connector-curvature="0"
       id="path23"
       d="m 108.84173,230.11904 c -0.0534,0.59278 -0.0816,1.19603 -0.0816,1.8085 v 12.01679 c 0,8.29242 5.03286,14.96828 11.28442,14.96828 6.25155,0 11.28441,-6.67586 11.28441,-14.96828 v -12.01679 c 0,-0.61247 -0.0281,-1.21572 -0.0815,-1.8085 -0.38611,0.0104 -0.77421,0.0166 -1.1648,0.0166 h -20.07614 c -0.39059,0 -0.77869,-0.006 -1.16481,-0.0166 z"
       style="fill:#000000;stroke-width:0.06406702" />
    <path
       style="fill:#ff6600;stroke-width:0.07595797"
       d="m 52.082501,133.49638 c -0.749934,-0.0593 -1.513094,-0.0907 -2.287916,-0.0907 H 34.592309 c -10.490622,0 -18.936165,5.59206 -18.936165,12.53824 0,6.94618 8.445543,12.53823 18.936165,12.53823 h 15.202276 c 0.774822,0 1.537982,-0.0312 2.287916,-0.0905 -0.01322,-0.42902 -0.02094,-0.86025 -0.02094,-1.29424 V 134.7906 c 0,-0.434 0.0077,-0.86522 0.02094,-1.29423 z"
       id="path25"
       inkscape:connector-curvature="0" />
  </g>
</svg>
